<svg width="29" height="29" viewBox="0 0 29 29" fill="none" xmlns="http://www.w3.org/2000/svg">
<mask id="mask0_1558_429" style="mask-type:alpha" maskUnits="userSpaceOnUse" x="0" y="0" width="29" height="29">
<rect width="28.3339" height="28.3339" fill="#D9D9D9"/>
</mask>
<g mask="url(#mask0_1558_429)">
<path d="M15.6224 25.1513V24.4258H14.8925V25.1513V25.8725H14.167V26.598H14.8925H15.6224H16.3479V25.8725H17.0734V25.1513H16.3479H15.6224Z" fill="#CE7E28"/>
<path d="M14.8925 25.872V25.1508V24.4253H14.167V23.704V22.9785H13.4414V23.704H12.7159H11.9861V24.4253V25.1508V25.872H12.7159V26.5975H13.4414H14.167V25.872H14.8925Z" fill="#EAB81C"/>
<path d="M11.9861 24.426V23.7047H12.716H13.4415V22.9792H14.167H14.8925V22.258H15.6223H16.3478V21.5368H17.0734V20.8112H17.7989V20.09V19.3645V18.6433V17.9178V17.1965V16.471V15.7498V15.0243V14.303V13.5775V12.8563V12.1351H17.0734V11.4095V10.6883H16.3478V9.96278H15.6223V9.24155H14.8925V8.51603H14.167V7.79481H13.4415V7.06929V6.34806V5.62254V4.90132H14.167V4.1758V3.45457V2.73333V2.00781H13.4415V2.73333V3.45457V4.1758H12.716V4.90132V5.62254V6.34806V7.06929V7.79481H11.9861H11.2606V8.51603H10.5351V9.24155H9.80958V9.96278H9.07976V10.6883H8.35424H7.62872V11.4095V12.1351V12.8563V13.5775V14.303V15.0243V15.7498V16.471V17.1965V17.9178V18.6433V19.3645V20.09V20.8112H8.35424V21.5368H9.07976V22.258H9.80958H10.5351V22.9792H11.2606V23.7047V24.426V25.1515V25.8727H11.9861V25.1515V24.426Z" fill="#F7D857"/>
<path d="M11.2606 23.7044V22.9789H10.5351V22.2577H9.80958H9.07977V21.5364H8.35425V20.8109H7.62873V21.5364H6.90321H6.17769V20.8109H6.90321H7.62873V20.0897V19.3642V18.6429V17.9174V17.1962V16.4707V15.7494V15.0239V14.3027V13.5772V12.8559V12.1347V11.4092V10.688H6.90321V9.96244V9.24121H6.17769V9.96244V10.688V11.4092V12.1347V12.8559V13.5772V14.3027H5.44788V15.0239V15.7494V16.4707V17.1962V17.9174V18.6429V19.3642V20.0897V20.8109V21.5364V22.2577H6.17769V22.9789H6.90321H6.92897V23.7044H7.62873H8.35425V24.4256H9.07977H9.10124V25.1511H9.80958H10.5351H11.2606V24.4256V23.7044Z" fill="#EAB81C"/>
<path d="M21.4308 23.704H20.7053H19.9797V24.4253H19.2542V25.1508H19.9797H20.7053V24.4253H21.4308H22.1606V23.704V22.9785H21.4308V23.704Z" fill="#590C0C"/>
<path d="M14.167 23.704V24.4253H14.8925V23.704V22.9785H14.167V23.704Z" fill="#CE7E28"/>
<path d="M22.1606 21.5364H22.8861V20.8108V20.0896V19.3641V18.6429V17.9173V17.1961V16.4706V15.7494H22.1606V15.0238V14.3026V13.5771V12.8559V12.1347V11.4091V10.6879V9.96237V9.24115V8.51563H21.4308V7.7944V7.06888H20.7053V6.34766H19.9797H19.2542V7.06888V7.7944H19.9797V8.51563H20.7053V9.24115H19.9797V9.96237H20.7053V10.6879V11.4091V12.1347V12.8559V13.5771V14.3026V15.0238V15.7494V16.4706H21.4308V17.1961V17.9173V18.6429V19.3641V20.0896V20.8108H20.7053H19.9797H19.2542V21.5364H19.9797H20.7053V22.2576V22.9788H19.9797H19.2542V23.7043H18.5244V24.4256H17.7989H17.0734V25.1511H17.7989H18.5244H19.2542V24.4256H19.9797V23.7043H20.7053H21.4308V22.9788H22.1606V22.2576V21.5364Z" fill="#CE7E28"/>
<path d="M17.7989 24.4262H18.5244V23.705H19.2542V22.9795H19.9797H20.7053V22.2583V21.537H19.9797H19.2542V20.8115H18.5244H17.7989H17.0734V21.537H16.3479V22.2583H15.6223H14.8925V22.9795V23.705V24.4262H15.6223V25.1518H16.3479H17.0734V24.4262H17.7989Z" fill="#EAB81C"/>
<path d="M6.17767 20.8115V21.537H6.90319H7.62871V20.8115H6.90319H6.17767Z" fill="#F7D857"/>
<path d="M18.5244 20.0898H17.7989V20.8111H18.5244H19.2542V20.0898H18.5244Z" fill="#CE7E28"/>
<path d="M18.5244 11.4092H17.7989H17.0734V12.1347H17.7989H18.5244V11.4092Z" fill="#CE7E28"/>
<path d="M19.2542 10.6874V11.4087H18.5244V12.1342H17.7989V12.8554V13.5766V14.3022V15.0234V15.7489V16.4701V17.1957V17.9169V18.6424V19.3636V20.0892H18.5244H19.2542V20.8104H19.9797H20.7053H21.4308V20.0892V19.3636V18.6424V17.9169V17.1957V16.4701H20.7053V15.7489V15.0234V14.3022V13.5766V12.8554V12.1342V11.4087V10.6874V9.96191H19.9797V10.6874H19.2542Z" fill="#EAB81C"/>
<path d="M19.2499 10.6885H18.5244V11.4097H19.2499V10.6885Z" fill="#CE7E28"/>
<path d="M19.9797 9.96191H19.2542V10.6832H19.9797V9.96191Z" fill="#CE7E28"/>
<path d="M22.8861 9.2411V8.51558V7.79435H22.1606V7.06883V6.34761H21.4308V5.62209H20.7053H19.9797V4.90086V4.17534H19.2542V3.45412H18.5244V2.73288H17.7989V2.00736H17.0734V1.28613H16.3478H15.6223H14.8925H14.167H13.4415H12.716H11.9861H11.2606V2.00736H10.5351V2.73288H9.80958V3.45412H9.07977V4.17534H8.35425V4.90086H7.62873V5.62209H6.90321V6.34761H6.17768V7.06883H5.44787V7.79435V8.51558V9.2411V9.96232H4.72235V10.6878V11.4091V12.1346V12.8558V13.5771V14.3026V15.0238V15.7493V16.4705V17.1961V17.9173V18.6428V19.364V20.0896V20.8108V21.5363V22.2575V22.9788H5.44787V23.7043H6.17768V24.4255H6.90321H7.62873V25.151H8.35425V25.8723H9.07977H9.80958V26.5978H10.5351H11.2606V27.319H11.9861H12.716H13.4415H14.167H14.8925H15.6223H16.3478H17.0734V26.5978H17.7989V25.8723H18.5244H19.2542V25.151H18.5244H17.7989H17.0734V25.8723H16.3478V26.5978H15.6223H14.8925H14.167H13.4415H12.716V25.8723H11.9861H11.2606V25.151H10.5351H9.80958H9.10123H9.07977V24.4255H8.35425V23.7043H7.62873H6.92896H6.90321V22.9788H6.17768V22.2575H5.44787V21.5363V20.8108V20.0896V19.364V18.6428V17.9173V17.1961V16.4705V15.7493V15.0238V14.3026H6.17768V13.5771V12.8558V12.1346V11.4091V10.6878V9.96232V9.2411V8.51558H6.90321V7.79435V7.06883H7.62873V6.34761H8.35425V5.62209H9.07977V4.90086H9.80958V4.17534H10.5351V3.45412H11.2606V2.73288H11.9861V2.00736H12.716H13.4415H14.167H14.8925H15.6223H16.3478V2.73288H17.0734V3.45412H17.7989V4.17534H18.5244V4.90086H19.2542V5.62209V6.34761H19.9797H20.7053V7.06883H21.4308V7.79435V8.51558H22.1606V9.2411V9.96232V10.6878V11.4091V12.1346V12.8558V13.5771V14.3026V15.0238V15.7493H22.8861V16.4705V17.1961V17.9173V18.6428V19.364V20.0896V20.8108V21.5363H22.1606V22.2575V22.9788H22.8861H23.6116V22.2575V21.5363V20.8108V20.0896V19.364V18.6428V17.9173V17.1961V16.4705V15.7493V15.0238V14.3026V13.5771V12.8558V12.1346V11.4091V9.96232V9.2411H22.8861Z" fill="#590C0C"/>
<path d="M7.62872 9.24121H6.9032V9.96244V10.688H7.62872V9.96244V9.24121Z" fill="#F7D857"/>
<path d="M7.62872 9.24155V9.96278V10.6883H8.35424H9.07976V9.96278H9.80957V9.24155H10.5351V8.51603H11.2606V7.79481H11.9861H12.7159V7.06929V6.34806V5.62254V4.90132V4.1758H13.4415V3.45457V2.73333V2.00781H12.7159H11.9861V2.73333H11.2606V3.45457H10.5351V4.1758H9.80957V4.90132H9.07976V5.62254H8.35424V6.34806H7.62872V7.06929H6.9032V7.79481V8.51603V9.24155H7.62872Z" fill="#EAB81C"/>
<path d="M6.90319 8.51562H6.17767V9.23686H6.90319V8.51562Z" fill="#F7D857"/>
<path d="M14.167 3.45457V4.1758V4.90132H13.4415V5.62254V6.34806V7.06929V7.79481H14.167V8.51603H14.8925V9.24155H15.6223V9.96278H16.3478V10.6883H17.0734V11.4095H17.7989H18.5244V10.6883H19.2542V9.96278H19.9797V9.24155H20.7053V8.51603H19.9797V7.79481H19.2542V7.06929V6.34806H18.5244V5.62254H17.7989H17.0734V4.90132V4.1758H16.3478V3.45457H15.6223V2.73333H14.8925V2.00781H14.167V2.73333V3.45457Z" fill="#EAB81C"/>
<path d="M15.6223 2.73333V3.45457H16.3479V4.1758H17.0734V4.90132V5.62254H17.7989H18.5244V6.34806H19.2542V5.62254V4.90132H18.5244V4.1758H17.7989V3.45457H17.0734V2.73333H16.3479V2.00781H15.6223H14.8925V2.73333H15.6223Z" fill="#CE7E28"/>
<path d="M17.0733 8.91113L17.8461 10.4094L19.3444 11.1821L17.8461 11.9549L17.0733 13.4531L16.3006 11.9549L14.8023 11.1821L16.3006 10.4094L17.0733 8.91113Z" fill="white"/>
</g>
</svg>
