<svg width="29" height="29" viewBox="0 0 29 29" fill="none" xmlns="http://www.w3.org/2000/svg">
<mask id="mask0_1558_433" style="mask-type:alpha" maskUnits="userSpaceOnUse" x="0" y="0" width="29" height="29">
<rect width="28.3339" height="28.3339" fill="#D9D9D9"/>
</mask>
<g mask="url(#mask0_1558_433)">
<path d="M5.58088 24.0527H4.79526V24.8384H5.58088V24.0527Z" fill="#FB7B12"/>
<path d="M4.79527 23.2676H4.00964V24.0532H4.79527V23.2676Z" fill="#FB7B12"/>
<path d="M4.79527 22.4824H4.00964V23.268H4.79527V22.4824Z" fill="#F9CA23"/>
<path d="M4.00535 22.4824H3.21973V23.268H4.00535V22.4824Z" fill="#FB7B12"/>
<path d="M6.36652 21.6973H5.5809V22.4829H6.36652V21.6973Z" fill="#F9CA23"/>
<path d="M4.00964 22.4819H4.79527V23.2675H5.58089H6.3708V22.4819H5.58089V21.6963H4.79527V20.9107H4.00964V20.1293V19.3437V18.5581V17.7725H3.21973V18.5581V19.3437V20.1293V20.9107V21.6963H4.00964V22.4819Z" fill="#FBE482"/>
<path d="M4.00535 21.6973H3.21973V22.4829H4.00535V21.6973Z" fill="#F9CA23"/>
<path d="M13.4543 21.6958V22.4814H12.6644V23.267H11.8788V24.0526H11.0931V24.8383H10.3032H9.5176H8.73198H7.94206H7.15644H6.37082H5.5809V25.6239H6.37082H7.15644V26.4052H7.94206H8.73198H9.5176H10.3032V25.6239H11.0931H11.8788V24.8383H12.6644V24.0526H13.4543V23.267H14.2399V22.4814V21.6958V20.9102H13.4543V21.6958Z" fill="#FB7B12"/>
<path d="M5.58088 20.9102H4.79526V21.6958H5.58088V20.9102Z" fill="#F9CA23"/>
<path d="M5.58088 20.1298V19.3441V18.5585V17.7729H6.3708V16.9873H7.15642H7.18218V16.2016H7.94204H8.73196H9.51758V16.9873H10.3032H11.0931V16.2016H10.3032V15.416H9.51758H8.73196H7.94204H7.15642H6.3708V16.2016H5.58088V16.9873H4.79526V17.7729V18.5585V19.3441V20.1298V20.9111H5.58088V20.1298Z" fill="#FB7B12"/>
<path d="M14.2399 20.1298V20.9112H15.0256V20.1298V19.3442V18.5586H14.2399V19.3442V20.1298Z" fill="#FB7B12"/>
<path d="M9.5176 16.9868V16.2012H7.1822V16.9868H6.36652V17.7724H5.5809V21.6962H6.36652V22.4819H10.3032V21.6962H11.0888V20.125H11.8745V17.7681H11.0888V16.9825H9.51331L9.5176 16.9868ZM10.3032 19.3437V20.9149H9.5176V21.7005H7.15644V20.9149H6.37082V18.558H7.15644V17.7724H9.5176V18.558H10.3032V19.3437Z" fill="#590C0C"/>
<path d="M22.109 15.4161H21.3234V16.2017H20.5378H19.7479V15.4161H18.9622V16.2017V16.9873H19.7479H20.5378H21.3234H22.109V16.2017H22.8989V15.4161V14.6348H22.109V15.4161Z" fill="#590C0C"/>
<path d="M18.9622 14.6348H18.1766V15.4204H18.9622V14.6348Z" fill="#590C0C"/>
<path d="M4.00968 15.4155H3.21977V16.2011H2.43414V16.9867V17.7724V18.558V19.3436V20.1292V20.9105V21.6962H3.21977V20.9105V20.1292V19.3436V18.558V17.7724H4.00968V18.558V19.3436V20.1292V20.9105H4.7953V20.1292V19.3436V18.558V17.7724V16.9867H5.58093V16.2011H6.37084V15.4155H7.15647H7.94209H8.732H9.51763H10.3032V16.2011H11.0932V16.9867V17.7724H11.8788V18.558V19.3436V20.1292H11.0932V20.9105V21.6962H10.3032V22.4818H9.51763H7.94209H7.15647H6.37084V23.2674H5.58093H4.7953V24.053H5.58093V24.8387H6.37084H7.15647H7.94209H8.732H9.51763H10.3032H11.0932V24.053H11.8788V23.2674H12.6644V22.4818H13.4543V21.6962V20.9105H14.2399V20.1292V19.3436V18.558V17.7724V16.9867H13.4543V16.2011V15.4155H14.2399V14.6342H15.0256V13.8485H15.8155V13.0629H16.6011V12.2773H17.3867V13.0629H18.1766V13.8485H18.9623V14.6342H19.7479H20.5378H21.3234V13.8485H22.1091V13.0629V12.2773H21.3234V11.4917H20.5378V10.706H19.7479V9.92042V9.13909H20.5378V8.35346H21.3234V9.13909H22.1091V9.92042H22.899V10.706H23.6846H24.4702H25.2601V9.92042H26.0458V9.13909V8.35346H25.2601V7.56784H24.4702V6.78222H23.6846V5.9966V5.21097H24.4702V4.42535V3.64402H23.6846V2.8584H22.899H22.1091H21.3234V3.64402H22.1091V4.42535V5.21097H21.3234V5.9966H20.5378V6.78222H19.7479V7.56784H18.9623V8.35346H18.1766V9.13909H17.3867V9.92042H16.6011V10.706H15.8155V11.4917H15.0256V12.2773H14.2399V13.0629H13.4543V12.2773V11.4917H12.6644V12.2773H11.8788V13.0629H11.0932H10.3032H9.51763H8.732V12.2773H7.15647V13.0629H6.37084H5.58093V13.8485H4.7953H4.00968V14.6342V15.4155Z" fill="#F9CA23"/>
<path d="M18.9622 13.8486H18.1766V14.6343H18.9622V13.8486Z" fill="#DC6510"/>
<path d="M17.3867 13.8486H16.6011V14.6343H15.8155V15.4156H15.0255V16.2012H14.2399V16.9868V17.7725V18.5581H15.0255V19.3437V20.1293V20.9106H14.2399V21.6963V22.4819V23.2675H13.4543V24.0531H12.6644V24.8388H11.8788V25.6244H11.0931H10.3032V26.4057H9.5176H8.73198H7.94206H7.15644V25.6244H6.37082H5.5809V24.8388H4.79528V24.0531H4.00966V23.2675H3.21974V22.4819V21.6963H2.43412V20.9106V20.1293V19.3437V18.5581V17.7725V16.9868V16.2012H3.21974V15.4156H4.00966V14.6343V13.8486H3.21974V14.6343H2.43412V15.4156H1.6485V16.2012V16.9868V17.7725H0.858582V18.5581V19.3437V20.1293H1.6485V20.9106V21.6963V22.4819H2.43412V23.2675V24.0531H3.21974V24.8388H4.00966V25.6244H4.79528V26.4057H5.5809H6.37082V27.1913H7.15644H7.94206H8.73198H9.5176H10.3032H11.0931V26.4057H11.8788H12.6644V25.6244H13.4543V24.8388H14.2399V24.0531H15.0255V23.2675V22.4819H15.8155V21.6963V20.9106V20.1293V19.3437V18.5581V17.7725H15.0255V16.9868H15.8155V16.2012H16.6011V15.4156H17.3867V14.6343H18.1766V13.8486H17.3867Z" fill="#590C0C"/>
<path d="M22.8989 13.8481V14.6337H23.6846V13.8481V13.0625H22.8989V13.8481Z" fill="#590C0C"/>
<path d="M22.8989 13.0625H22.109V13.8481H21.3234V14.6337H20.5378H19.7479H18.9622V15.4151H19.7479V16.2007H20.5378H21.3234V15.4151H22.109V14.6337H22.8989V13.8481V13.0625Z" fill="#FB7B12"/>
<path d="M17.3867 13.063V12.2773H16.6011V13.063H15.8155V13.8486H15.0256V14.6342H14.2399V15.4155H13.4543V16.2012V16.9868H14.2399V16.2012H15.0256V15.4155H15.8155V14.6342H16.6011V13.8486H17.3867H18.1766V13.063H17.3867Z" fill="#FB7B12"/>
<path d="M22.8946 12.2773H22.109V13.063H22.8946V12.2773Z" fill="#590C0C"/>
<path d="M13.4543 13.0634H14.2399V12.2778H15.0256V11.4922H15.8155V10.7065H16.6011V9.92093H17.3867V9.1396H18.1766V8.35397H18.9623V7.56835H19.7479V6.78273H20.5378V5.99711H21.3234V5.21148H22.109V4.42586V3.64453H21.3234V4.42586H20.5378V5.21148H19.7479V5.99711H18.9623V6.78273H18.1766V7.56835H17.3867V8.35397H16.6011V9.1396H15.8155V9.92093H15.0256V10.7065H14.2399V11.4922H13.4543V12.2778V13.0634Z" fill="#FBE482"/>
<path d="M22.109 11.4912H21.3234V12.2768H22.109V11.4912Z" fill="#590C0C"/>
<path d="M26.0457 11.4921H25.2601V12.2778H24.4702V11.4921H23.6846V10.7065H22.8989V9.9209H22.109H21.3234H20.5378V10.7065V11.4921H21.3234V10.7065H22.109V11.4921H22.8989V12.2778H23.6846V13.0634H24.4702H25.2601H26.0457V12.2778H26.8313V11.4921V10.7065H26.0457V11.4921Z" fill="#590C0C"/>
<path d="M14.2399 10.7061H13.4543V11.4917H14.2399V10.7061Z" fill="#F9CA23"/>
<path d="M26.0457 9.9209H25.2601V10.7065H24.4702H23.6846V11.4921H24.4702V12.2778H25.2601V11.4921H26.0457V10.7065H26.8313V9.9209H26.0457Z" fill="#FB7B12"/>
<path d="M15.0256 9.9209H14.2399V10.7065H15.0256V9.9209Z" fill="#F9CA23"/>
<path d="M26.8313 9.13904V8.35342V7.5678H26.0457V6.78218H25.2601V5.99655H26.0457V5.21093V4.42531H25.2601V3.64398V2.85835H24.4702V2.07273H23.6846V1.28711H22.8989H22.109V2.07273H21.3234H20.5378V2.85835H19.7479V3.64398H18.9622V4.42531H18.1766V5.21093H17.3867V5.99655H16.6011V6.78218H15.8154V7.5678H15.0255V8.35342H14.2399V9.13904H13.4543V9.92037H12.6644V10.706H11.8787V11.4916H11.0931V12.2772H10.3032H9.51759V11.4916H8.73197H7.94205H7.15643H6.3708V12.2772H5.58089H4.79527V13.0629H4.00964V13.8485H4.79527H5.58089V13.0629H6.3708H7.15643V12.2772H8.73197V13.0629H9.51759H10.3032H11.0931H11.8787V12.2772H12.6644V11.4916H13.4543V10.706H14.2399V9.92037H15.0255V9.13904H15.8154V8.35342H16.6011V7.5678H17.3867V6.78218H18.1766V5.99655H18.9622V5.21093H19.7479V4.42531H20.5378V3.64398H21.3234V2.85835H22.109H22.8989H23.6846V3.64398H24.4702V4.42531V5.21093V5.99655V6.78218V7.5678H25.2601V8.35342H26.0457V9.13904V9.92037H26.8313V10.706H27.6213V9.92037V9.13904H26.8313Z" fill="#590C0C"/>
<path d="M21.3234 9.14012V8.35449H20.5378V9.14012H19.7479V9.92145V10.7071H20.5378V9.92145H21.3234H22.109V9.14012H21.3234Z" fill="#FB7B12"/>
<path d="M15.8112 9.13867H15.0255V9.92429H15.8112V9.13867Z" fill="#F9CA23"/>
<path d="M16.6011 8.35449H15.8155V9.14012H16.6011V8.35449Z" fill="#F9CA23"/>
<path d="M17.3867 7.56836H16.6011V8.35398H17.3867V7.56836Z" fill="#F9CA23"/>
<path d="M18.1723 6.78223H17.3867V7.56785H18.1723V6.78223Z" fill="#F9CA23"/>
<path d="M18.9622 5.99609H18.1766V6.78172H18.9622V5.99609Z" fill="#F9CA23"/>
<path d="M23.6846 5.99656V6.78218H24.4702V5.99656V5.21094H23.6846V5.99656Z" fill="#FB7B12"/>
<path d="M19.7479 5.21094H18.9622V5.99656H19.7479V5.21094Z" fill="#F9CA23"/>
<path d="M20.5335 4.42578H19.7479V5.2114H20.5335V4.42578Z" fill="#F9CA23"/>
<path d="M21.3234 3.64453H20.5378V4.43015H21.3234V3.64453Z" fill="#F9CA23"/>
</g>
</svg>
