<svg width="29" height="29" viewBox="0 0 29 29" fill="none" xmlns="http://www.w3.org/2000/svg">
<mask id="mask0_1558_427" style="mask-type:alpha" maskUnits="userSpaceOnUse" x="0" y="0" width="29" height="29">
<rect width="28.3339" height="28.3339" fill="#D9D9D9"/>
</mask>
<g mask="url(#mask0_1558_427)">
<path d="M21.0781 24.5521H20.2667H19.4553H18.6438V23.737V22.9218V22.1103V21.2952V20.48V19.6686V18.8534V18.0382H17.8324V18.8534V19.6686V20.48V21.2952V22.1103V22.9218V23.737V24.5521H17.0248H16.2133H15.4019H14.5905H13.7791H12.9714H12.16H11.3486V23.737V22.9218V22.1103V21.2952V20.48V19.6686H10.5372V18.8534V18.0382V17.2268V16.4116V15.5965V14.785V13.9699V13.1547V12.3433V11.5281H9.72573V12.3433H8.91807V11.5281H9.72573V10.7129V9.90149V9.08632V8.27115H10.5372V7.45972H11.3486V6.64455H12.16V5.82938H12.9714V5.01794H13.7791V4.20277H14.5905H15.4019V5.01794H16.2133V5.82938H17.0248V6.64455H17.8324V7.45972H18.6438V6.64455V5.82938H17.8324V5.01794H17.0248V4.20277H16.2133V3.3876H15.4019V2.57617H14.5905H13.7791V3.3876H12.9714V4.20277H12.16V5.01794H11.3486V5.82938H10.5372V6.64455H9.72573V7.45972H8.91807V8.27115V9.08632V9.90149V10.7129H8.10665H7.29523H6.48381V11.5281H7.29523H8.10665V12.3433V13.1547H8.91807V13.9699V14.785V15.5965V16.4116H9.72573V17.2268V18.0382V18.8534V19.6686V20.48H10.5372V21.2952V22.1103V22.9218V23.737V24.5521H9.72573H8.91807H8.10665H7.29523H6.48381V23.737H5.67615V24.5521V25.3636H6.48381H7.29523H8.10665H8.91807H9.72573H10.5372H11.3486H12.16H12.9714H13.7791H14.5905H15.4019H16.2133H17.0248H17.8324H18.6438H19.4553H20.2667H21.0781H21.8858H22.6972V24.5521H21.8858H21.0781Z" fill="#590C0C"/>
<path d="M6.48383 24.552H7.29525H8.10666H8.91808H9.72575V23.7368H8.91808V22.9217V22.1102H8.10666V21.2951V20.4799H7.29525V19.6685V18.8533H6.48383V18.0381V17.2267H5.67616V16.4115V15.5963V14.7849H6.48383V13.9697V13.1546H7.29525V12.3431V11.528H6.48383V10.7128H5.67616H4.86474H4.05332V9.90137H3.2419V10.7128V11.528H4.05332V12.3431V13.1546H4.86474V13.9697V14.7849V15.5963H4.05332H3.2419H2.43048V14.7849H1.62282H0.811401V15.5963H1.62282V16.4115H2.43048V17.2267V18.0381H3.2419V18.8533V19.6685H4.05332V20.4799H4.86474V21.2951V22.1102H5.67616V22.9217V23.7368H6.48383V24.552Z" fill="#8A36FB"/>
<path d="M14.5905 22.9221V22.1107V21.2955V20.4803V19.6689V18.8537V18.0386V17.2271V16.412V15.5968V14.7854V13.9702V13.155V12.3436V11.5284H13.7791V10.7133H12.9714H12.16V9.90182H11.3486V9.08665H10.5372V8.27148H9.72577V9.08665V9.90182V10.7133V11.5284H10.5372V12.3436V13.155V13.9702V14.7854V15.5968V16.412V17.2271V18.0386V18.8537V19.6689H11.3486V20.4803V21.2955V22.1107V22.9221V23.7373V24.5525H12.16H12.9714H13.7791H14.5905V23.7373V22.9221Z" fill="#8A36FB"/>
<path d="M5.67614 22.1107H4.86472V21.2955V20.4804H4.0533V19.6689H3.24188V20.4804V21.2955H4.0533V22.1107V22.9221H4.86472V23.7373H5.67614V22.9221V22.1107Z" fill="#590C0C"/>
<path d="M24.32 21.2956H23.5086V22.1108V22.9222H22.6972V23.7374V24.5526H23.5086V23.7374H24.32V22.9222V22.1108H25.1277V21.2956V20.4805H24.32V21.2956Z" fill="#590C0C"/>
<path d="M3.2419 18.0381H2.43048V18.8533V19.6684H3.2419V18.8533V18.0381Z" fill="#590C0C"/>
<path d="M26.7505 17.2273H25.9391V18.0387V18.8539H25.1277V19.6691V20.4805H25.9391V19.6691H26.7505V18.8539V18.0387H27.5619V17.2273V16.4121H26.7505V17.2273Z" fill="#590C0C"/>
<path d="M18.6439 16.412V15.5968V14.7854V13.9702V13.155V12.3436V11.5284V10.7133V9.90182H19.4553V9.08665V8.27148H18.6439V9.08665H17.8325V9.90182H17.0248H16.2134V10.7133H15.402V11.5284H14.5905V12.3436V13.155V13.9702V14.7854V15.5968V16.412V17.2271V18.0386V18.8537V19.6689V20.4803V21.2955V22.1107V22.9221V23.7373V24.5525H15.402H16.2134H17.0248H17.8325V23.7373V22.9221V22.1107V21.2955V20.4803V19.6689V18.8537V18.0386H18.6439V17.2271V16.412Z" fill="#6D2ACC"/>
<path d="M2.43048 16.4118H1.62282V15.5967H0.811401V16.4118V17.227H1.62282V18.0385H2.43048V17.227V16.4118Z" fill="#590C0C"/>
<path d="M27.562 14.7842H26.7506H25.9391V15.5956H25.1277H24.3201H23.5086V16.4108H22.6972V17.226V18.0374H21.8858V18.8526V19.6677H21.0781V20.4792V21.2943H20.2667V22.1095V22.9209V23.7361H19.4553V24.5513H20.2667H21.0781H21.8858H22.6972V23.7361V22.9209H23.5086V22.1095V21.2943H24.3201V20.4792H25.1277V19.6677V18.8526H25.9391V18.0374V17.226H26.7506V16.4108H27.562V15.5956V14.7842Z" fill="#8A36FB"/>
<path d="M0.81142 13.9702H1.62284V13.155V12.3436V11.5284H2.4305V10.7133V9.90182H3.24192H4.05334V10.7133H4.86476H5.67618H6.48384V9.90182H5.67618H4.86476V9.08665H4.05334H3.24192V8.27148H2.4305V9.08665H1.62284V9.90182V10.7133H0.81142V11.5284V12.3436V13.155H0V13.9702V14.7854V15.5968H0.81142V14.7854V13.9702Z" fill="#590C0C"/>
<path d="M20.2667 13.9694V14.7845V15.596H19.4553V16.4111V17.2263V18.0378H18.6439V18.8529V19.6681V20.4795V21.2947V22.1099V22.9213V23.7365V24.5516H19.4553V23.7365H20.2667V22.9213V22.1099V21.2947H21.0781V20.4795V19.6681H21.8858V18.8529V18.0378H22.6972V17.2263V16.4111H23.5086V15.596V14.7845H22.6972V13.9694H21.8858V13.1542V12.3428H21.0781H20.2667V13.1542V13.9694Z" fill="#6D2ACC"/>
<path d="M21.8858 13.1546V13.9697H22.6972V14.7849H23.5086H24.32V13.9697V13.1546H25.1277V12.3431V11.528V10.7128H25.9391V9.90137H25.1277H24.32V10.7128H23.5086H22.6972V11.528H21.8858H21.0781V12.3431H21.8858V13.1546Z" fill="#8A36FB"/>
<path d="M7.29523 13.1549H6.48381V13.9701V14.7853H5.67615V15.5967V16.4119V17.227H6.48381V18.0385V18.8536H7.29523V19.6688V20.4802H8.10665V21.2954V22.1106H8.91807V22.922V23.7372H9.72573V24.5524H10.5372V23.7372V22.922V22.1106V21.2954V20.4802H9.72573V19.6688V18.8536V18.0385V17.227V16.4119H8.91807V15.5967V14.7853V13.9701V13.1549H8.10665V12.3435V11.5283H7.29523V12.3435V13.1549Z" fill="#6D2ACC"/>
<path d="M27.562 11.5284V10.7133V9.90182V9.08665H26.7505V8.27148H25.9391V9.08665H25.1277H24.32H23.5086V9.90182H22.6972H21.8858V10.7133H21.0781H20.2667V11.5284V12.3436H21.0781V11.5284H21.8858H22.6972V10.7133H23.5086H24.32V9.90182H25.1277H25.9391H26.7505V10.7133V11.5284V12.3436H27.562V13.155V13.9702V14.7854V15.5968V16.412H28.3734V15.5968V14.7854V13.9702V13.155V12.3436V11.5284H27.562Z" fill="#590C0C"/>
<path d="M25.1277 10.7128V11.528V12.3431V13.1546H24.32V13.9697V14.7849H23.5086V15.5963H24.32H25.1277H25.9391V14.7849H26.7505H27.562V13.9697V13.1546V12.3431H26.7505V11.528V10.7128V9.90137H25.9391V10.7128H25.1277Z" fill="#BD50FB"/>
<path d="M2.43048 10.7128V11.528H1.62282V12.3431V13.1546V13.9697H0.811401V14.7849H1.62282H2.43048V15.5963H3.2419H4.05332H4.86474V14.7849V13.9697V13.1546H4.05332V12.3431V11.528H3.2419V10.7128V9.90137H2.43048V10.7128Z" fill="#BD50FB"/>
<path d="M11.3486 9.08569V9.90086H12.16V10.7123H12.9714H13.7791V11.5275H14.5905V10.7123V9.90086V9.08569V8.27052V7.45909V6.64392V5.82875V5.01732V4.20215H13.7791V5.01732H12.9714V5.82875H12.16V6.64392H11.3486V7.45909H10.5372V8.27052V9.08569H11.3486Z" fill="#BD50FB"/>
<path d="M19.4553 8.27139V9.08656V9.90173H18.6439V10.7132V11.5283V12.3435V13.1549V13.9701V14.7853V15.5967V16.4119V17.2271V18.0385H19.4553V17.2271V16.4119V15.5967H20.2667V14.7853V13.9701V13.1549V12.3435H19.4553V11.5283V10.7132H20.2667V9.90173V9.08656V8.27139V7.45996H19.4553H18.6439V8.27139H19.4553Z" fill="#590C0C"/>
<path d="M17.8325 6.64392H17.0248V5.82875H16.2134V5.01732H15.402V4.20215H14.5905V5.01732V5.82875V6.64392V7.45909V8.27052V9.08569V9.90086V10.7123V11.5275H15.402V10.7123H16.2134V9.90086H17.0248H17.8325V9.08569H18.6439V8.27052V7.45909H17.8325V6.64392Z" fill="#8A36FB"/>
<path d="M16.6904 8.94727L17.2276 9.98408L18.2644 10.5213L17.2276 11.0547L16.6904 12.0953L16.1532 11.0547L15.1164 10.5213L16.1532 9.98408L16.6904 8.94727Z" fill="white"/>
<path d="M21.8144 17.6631L22.2239 18.5759L23.0165 19.0455L22.2239 19.5151L21.8144 20.4279L21.4049 19.5151L20.6123 19.0455L21.4049 18.5759L21.8144 17.6631Z" fill="white"/>
</g>
</svg>
