<svg width="29" height="29" viewBox="0 0 29 29" fill="none" xmlns="http://www.w3.org/2000/svg">
<mask id="mask0_1558_432" style="mask-type:alpha" maskUnits="userSpaceOnUse" x="0" y="0" width="29" height="29">
<rect width="28.3339" height="28.3339" fill="#D9D9D9"/>
</mask>
<g mask="url(#mask0_1558_432)">
<path d="M17.6829 24.4057H16.936V23.6587H16.1933H15.4506H14.7036V22.916H13.9609H13.2182H12.4712H11.7285H10.9858H10.2388H9.49615V23.6587H10.2388H10.9858V24.4057H11.7285H12.4712V25.1527H13.2182H13.9609H14.7036H15.4506H16.1933H16.936H17.6829H18.4256H19.1683V24.4057H18.4256H17.6829Z" fill="#4F5B62"/>
<path d="M11.7285 24.4057H10.9858V23.6587H10.2388H9.49612V22.916H8.75343H8.00644H7.26375H6.52106V23.6587H7.26375H8.00644V24.4057H8.75343H9.49612V25.1527H10.2388H10.9858V25.8997H11.7285H12.4712V25.1527V24.4057H11.7285Z" fill="#3D4548"/>
<path d="M8.00647 22.9146H8.75345V22.1676V21.4206V20.6779H8.00647V19.9309V19.184V18.4413H7.26377V17.6943V16.9473V16.2046V15.4576V14.7106V13.9679H6.52108V13.221V12.474V11.7313V10.9843V10.2373H5.7741V10.9843V11.7313V12.474V13.221V13.9679V14.7106V15.4576H5.0314V16.2046V16.9473V17.6943V18.4413H5.7741V19.184V19.9309V20.6779V21.4206H6.52108V22.1676V22.9146H7.26377H8.00647Z" fill="#788593"/>
<path d="M20.658 19.9321H19.9153H19.1683H18.4256H17.6829V19.1851H16.9359H16.1932H15.4505H14.7036V18.4424H13.9609H13.2182H12.4712V19.1851V19.9321V20.679V21.4217V22.1687V22.9157H13.2182H13.9609H14.7036V23.6584H15.4505H16.1932H16.9359V24.4054H17.6829H18.4256H19.1683H19.9153V23.6584V22.9157H20.658V22.1687H21.4007V21.4217V20.679H20.658V19.9321Z" fill="#5D6974"/>
<path d="M21.4007 19.1841V18.4414V17.6944H20.658V16.9475V16.2048H19.9153V15.4578V14.7108V13.9681H19.1683V13.2211V12.4741H18.4256V11.7314H17.683H16.936V12.4741H16.1933H15.4506V13.2211H14.7036H13.9609V13.9681H13.2182H12.4712H11.7285V14.7108H10.9858H10.2389V15.4578H10.9858V16.2048V16.9475H11.7285V17.6944H12.4712V18.4414H13.2182H13.9609H14.7036V19.1841H15.4506H16.1933H16.936H17.683V19.9311H18.4256H19.1683H19.9153H20.658V20.6781H21.4007H22.1477V19.9311H21.4007V19.1841Z" fill="#788593"/>
<path d="M8.75344 15.458V16.205H8.00646H7.26376V16.9477V17.6947V18.4417H8.00646V19.1843V19.9313V20.6783H8.75344V21.421V22.168V22.915H9.49613H10.2388H10.9858H11.7285H12.4712V22.168V21.421V20.6783V19.9313V19.1843V18.4417V17.6947H11.7285V16.9477H10.9858V16.205V15.458H10.2388H9.49613H8.75344Z" fill="#8C97A1"/>
<path d="M22.1477 13.2216H21.4007H20.658V12.4746H19.9153H19.1683V13.2216V13.9686H19.9153V14.7113V15.4583V16.2052H20.658V16.9479V17.6949H21.4007V18.4419V19.1846V19.9316H22.1477V19.1846V18.4419V17.6949V16.9479V16.2052H22.8904V15.4583V14.7113V13.9686H22.1477V13.2216Z" fill="#3D4548"/>
<path d="M22.1477 11.732V10.985V10.2381V9.49107H21.4007V8.74838V8.00139V7.25441V6.51172H20.658V7.25441V8.00139H19.9153V8.74838V9.49107V10.2381H19.1683V10.985H18.4256V10.2381H17.683V9.49107H16.936V8.74838V8.00139H16.1933V7.25441V6.51172H15.4506V7.25441H14.7036H13.9609V8.00139H13.2182V8.74838H12.4712V9.49107H11.7285V10.2381H10.9858V10.985H10.2389V11.732V12.4747V13.2217V13.9687V14.7114H10.9858H11.7285V13.9687H12.4712H13.2182H13.9609V13.2217H14.7036H15.4506V12.4747H16.1933H16.936V11.732H17.683H18.4256V12.4747H19.1683V11.732H19.9153V12.4747H20.658V13.2217H21.4007H22.1477V13.9687H22.8904V13.2217V12.4747H22.1477V11.732Z" fill="#5D6974"/>
<path d="M19.911 11.7314H19.1683V12.4784H19.911V11.7314Z" fill="#444D51"/>
<path d="M6.52106 11.7313V12.474V13.221V13.9679H7.26375V13.221V12.474V11.7313V10.9843V10.2373H6.52106V10.9843V11.7313Z" fill="#F2F6FA"/>
<path d="M22.8904 10.2381V6.51172H22.1477V5.02204H20.658V4.27505H19.9153V3.52807H19.1726V2.78108H18.4299V2.0341H16.9402V1.28711H13.9652V2.0341H13.2225V2.78108H12.4798V3.52807H10.9901V4.27505H9.50043V5.02204H8.01075V5.76902H5.77838V8.75267H5.03569V12.479H4.293V20.683H5.03569V22.9196H5.77838V24.4093H7.26806V25.1563H8.75774V25.9033H10.2474V26.6503H15.4549V25.9033H19.9196V25.1563H20.6623V24.4093H21.405V22.9196H22.1477V21.43H22.8904V19.1933H23.6331V10.2466H22.8904V10.2381ZM22.8904 13.2217V16.2054H22.1477V20.6787H21.405V22.1684H20.6623V22.9153H19.9196V24.405H19.1769V25.152H12.4798V25.899H10.9901V25.152H9.50043V24.405H8.01075V23.658H6.52108V21.4214H5.77838V18.4377H5.03569V15.4541H5.77838V10.2338H6.52108V7.25011H7.26377V6.50313H8.75345V5.75614H10.9858V5.00916H11.7285V4.26217H13.2182V3.51519H13.9609V2.7682H14.7036V2.02122H16.1932V2.7682H16.9359V3.51519H18.4256V4.26217H19.1683V5.00916H19.911V5.75614H20.6537V6.50313H21.3964V9.48678H22.1391V12.4704H22.8818V13.2174L22.8904 13.2217Z" fill="#590C0C"/>
<path d="M9.49613 10.2387V9.49171H8.75344V8.74902H8.00646V9.49171V10.2387V10.9857V11.7327V12.4754H7.26376V13.2223V13.9693V14.712V15.459V16.206H8.00646H8.75344V15.459H9.49613H10.2388V14.712V13.9693V13.2223V12.4754V11.7327V10.9857V10.2387H9.49613Z" fill="#A0A9B1"/>
<path d="M7.26375 10.9845V11.7315V12.4742H8.00644V11.7315V10.9845V10.2376V9.49057V8.74788V8.00089H7.26375V7.25391H6.52106V8.00089V8.74788V9.49057V10.2376H7.26375V10.9845Z" fill="#788593"/>
<path d="M8.00646 8.00123V8.74821H8.75344V8.00123H9.49613V7.25424H10.2388H10.9858V6.51155H11.7285H12.4712V5.76456H11.7285V5.01758H10.9858V5.76456H10.2388H9.49613H8.75344V6.51155H8.00646H7.26376V7.25424V8.00123H8.00646Z" fill="#5D6974"/>
<path d="M12.4712 5.76443V6.51142H11.7285H10.9858V7.25411H10.2388H9.49611V8.00109H8.75342V8.74808V9.49077H9.49611V10.2378H10.2388V10.9847H10.9858V10.2378H11.7285V9.49077H12.4712V8.74808H13.2182V8.00109H13.9609V7.25411H14.7035H15.4505V6.51142H14.7035V5.76443H13.9609V5.01744H14.7035V4.27475H15.4505V3.52776V2.78078V2.03809H14.7035V2.78078H13.9609V3.52776H13.2182V4.27475H12.4712H11.7285V5.01744V5.76443H12.4712Z" fill="#788593"/>
<path d="M15.4506 3.52776V4.27475H14.7036V5.01744H13.9609V5.76443H14.7036V6.51142H15.4506H16.1933V7.25411V8.00109H16.936V8.74808V9.49077H17.683V10.2378H18.4256V10.9847H19.1683V10.2378H19.9153V9.49077V8.74808V8.00109H20.658V7.25411V6.51142V5.76443H19.9153V5.01744H19.1683V4.27475H18.4256V3.52776H17.683H16.936V2.78078H16.1933V2.03809H15.4506V2.78078V3.52776Z" fill="#A0A9B1"/>
</g>
</svg>
