<svg width="29" height="29" viewBox="0 0 29 29" fill="none" xmlns="http://www.w3.org/2000/svg">
<mask id="mask0_1558_431" style="mask-type:alpha" maskUnits="userSpaceOnUse" x="0" y="0" width="29" height="29">
<rect width="28.3339" height="28.3339" fill="#D9D9D9"/>
</mask>
<g mask="url(#mask0_1558_431)">
<path d="M17.7989 24.7233H17.0733V25.4488H16.3478V26.17H15.618H14.8925H14.167H13.4414H12.7116V25.4488H11.9861H11.2606V24.7233H10.5351H9.80526H9.1012H9.07974V24.0021H8.35422V23.2765H7.62869H6.92893H6.90317V22.5553H6.17336V21.8298H5.44784V21.1086V20.383V19.6618V18.9363V18.2151V17.4938V16.7683V16.0471V15.3216V14.6004V13.8748H6.17336V13.1536V12.4281V11.7069V10.9813V10.2601V9.53459V8.81336V8.09213H6.90317V7.36661V6.64539H7.62869V5.91987H8.35422V5.19864H9.07974V4.47312H9.80526V3.75189H10.5351V3.02637H11.2606V2.30514H11.9861V1.57962H12.7116H13.4414H14.167H14.8925H15.618H16.3478V2.30514H17.0733V3.02637H17.7989V3.75189H18.5244V4.47312H19.2499V5.19864H19.9797V4.47312V3.75189H19.2499V3.02637H18.5244V2.30514H17.7989V1.57962H17.0733V0.858398H16.3478H15.618H14.8925H14.167H13.4414H12.7116H11.9861H11.2606V1.57962H10.5351V2.30514H9.80526V3.02637H9.07974V3.75189H8.35422V4.47312H7.62869V5.19864H6.90317V5.91987H6.17336V6.64539H5.44784V7.36661V8.09213V8.81336V9.53459H4.72232V10.2601V10.9813V11.7069V12.4281V13.1536V13.8748V14.6004V15.3216V16.0471V16.7683V17.4938V18.2151V18.9363V19.6618V20.383V21.1086V21.8298V22.5553H5.44784V23.2765H6.17336V24.0021H6.90317H7.62869V24.7233H8.35422V25.4488H9.07974H9.80526V26.17H10.5351H11.2606V26.8956H11.9861H12.7116H13.4414H14.167H14.8925H15.618H16.3478H17.0733V26.17H17.7989V25.4488H18.5244H19.2499V24.7233H18.5244H17.7989Z" fill="#590C0C"/>
<path d="M15.618 24.7232V24.002H14.8925V24.7232V25.4487H14.167V26.1699H14.8925H15.618H16.3478V25.4487H17.0734V24.7232H16.3478H15.618Z" fill="#AE7043"/>
<path d="M14.8925 25.4482V24.7227V24.0014H14.167V23.2759V22.5547H13.4414V23.2759H12.7116H11.9861V24.0014V24.7227V25.4482H12.7116V26.1694H13.4414H14.167V25.4482H14.8925Z" fill="#BE8D63"/>
<path d="M11.9861 24.0025V23.277H12.7117H13.4415V22.5558H14.167H14.8925V21.8303H15.618H16.3478V21.109H17.0734V20.3835H17.7989V19.6623V18.9368V18.2155V17.4943V16.7688V16.0476V15.322V14.6008V13.8753V13.1541V12.4285V11.7073H17.0734V10.9818V10.2606H16.3478V9.53504H15.618V8.81382H14.8925V8.09259H14.167V7.36707H13.4415V6.64584V5.92032V5.1991V4.47358H14.167V3.75235V3.02682V2.3056V1.58008H13.4415V2.3056V3.02682V3.75235H12.7117V4.47358V5.1991V5.92032V6.64584V7.36707H11.9861H11.2606V8.09259H10.5351V8.81382H9.80528V9.53504H9.07976V10.2606H8.35424H7.62872V10.9818V11.7073V12.4285V13.1541V13.8753V14.6008V15.322V16.0476V16.7688V17.4943V18.2155V18.9368V19.6623V20.3835H8.35424V21.109H9.07976V21.8303H9.80528H10.5351V22.5558H11.2606V23.277V24.0025V24.7238V25.4493H11.9861V24.7238V24.0025Z" fill="#D7A887"/>
<path d="M11.2606 23.2767V22.5554H10.5351V21.8299H9.80526H9.07974V21.1087H8.35422V20.3832H7.6287V21.1087H6.90318H6.17337V20.3832H6.90318H7.6287V19.6619V18.9364V18.2152V17.494V16.7684V16.0472V15.3217V14.6005V13.8749V13.1537V12.4282V11.707V10.9815V10.2602H6.90318V9.5347V8.81348H6.17337V9.5347V10.2602V10.9815V11.707V12.4282V13.1537V13.8749H5.44785V14.6005V15.3217V16.0472V16.7684V17.494V18.2152V18.9364V19.6619V20.3832V21.1087V21.8299H6.17337V22.5554H6.90318H6.92894V23.2767H7.6287H8.35422V24.0022H9.07974H9.10121V24.7234H9.80526H10.5351H11.2606V24.0022V23.2767Z" fill="#BE8D63"/>
<path d="M21.4308 23.2759H20.7052H19.9797V24.0014H19.2499V24.7227H19.9797H20.7052V24.0014H21.4308H22.1563V23.2759V22.5547H21.4308V23.2759Z" fill="#590C0C"/>
<path d="M14.167 23.2759V24.0014H14.8925V23.2759V22.5547H14.167V23.2759Z" fill="#AE7043"/>
<path d="M22.1563 21.1086H22.8861V20.3831V19.6619V18.9364V18.2151V17.4939V16.7684H22.1563V16.0472H22.8861V15.3216H22.1563V14.6004V13.8749V13.1537V12.4281V11.7069V10.9814V10.2602V9.53464V8.81342V8.09219H21.4307V7.36667V6.64544H20.7052V5.91992H19.9797H19.2499V6.64544V7.36667H19.9797V8.09219H20.7052V8.81342H19.9797V9.53464H20.7052V10.2602V10.9814V11.7069V12.4281V13.1537V13.8749V14.6004V15.3216V16.0472H21.4307V16.7684V17.4939V18.2151V18.9364V19.6619V20.3831H20.7052H19.9797H19.2499V21.1086H19.9797H20.7052V21.8299V22.5554H19.9797H19.2499V23.2766H18.5244V24.0021H17.7989H17.0733V24.7233H17.7989H18.5244H19.2499V24.0021H19.9797V23.2766H20.7052H21.4307V22.5554H22.1563V21.8299V21.1086Z" fill="#AE7043"/>
<path d="M17.7989 20.3828H17.0734V21.1083H16.3479V21.8296H15.618H14.8925V22.5551V23.2763V24.0018H15.618V24.7231H16.3479H17.0734V24.0018H17.7989H18.5244V23.2763H19.2499V22.5551H19.9797H20.7053V21.8296V21.1083H19.9797H19.2499V20.3828H18.5244H17.7989Z" fill="#BE8D63"/>
<path d="M6.17334 20.3828V21.1083H6.90315H7.62867V20.3828H6.90315H6.17334Z" fill="#D7A887"/>
<path d="M18.5244 19.6611H17.7989V20.3824H18.5244H19.2499V19.6611H18.5244Z" fill="#AE7043"/>
<path d="M22.8818 16.0469H22.1563V16.7681H22.8818V16.0469Z" fill="#8A452B"/>
<path d="M17.7989 11.706H18.5244V10.9805H17.7989H17.0733V11.706H17.7989Z" fill="#AE7043"/>
<path d="M19.2499 10.2597V10.9809H18.5244V11.7064H17.7989V12.4277V13.1532V13.8744V14.5999V15.3212V16.0467V16.7679V17.4934V18.2147V18.9359V19.6614H18.5244H19.2499V20.3826H19.9797H20.7052H21.4308V19.6614V18.9359V18.2147V17.4934V16.7679V16.0467H20.7052V15.3212V14.5999V13.8744V13.1532V12.4277V11.7064V10.9809V10.2597V9.53418H19.9797V10.2597H19.2499Z" fill="#BE8D63"/>
<path d="M19.2499 10.2598H18.5244V10.981H19.2499V10.2598Z" fill="#AE7043"/>
<path d="M19.9754 9.53418H19.2499V10.2554H19.9754V9.53418Z" fill="#AE7043"/>
<path d="M22.8861 8.81296V8.09173V7.36621H22.1563V6.64499V5.91947H21.4308V5.19824H20.7053H19.9797V5.91947H20.7053V6.64499H21.4308V7.36621V8.09173H22.1563V8.81296V9.53419V10.2597V10.9809V11.7065V12.4277V13.1532V13.8744V14.6V15.3212H22.8861V16.0467V16.7679V17.4935V18.2147V18.9359V19.6614V20.3827V21.1082H22.1563V21.8294V22.5549H22.8861H23.6116V21.8294V21.1082V20.3827V19.6614V18.9359V18.2147V17.4935V16.7679V16.0467V15.3212V14.6V13.8744V13.1532V12.4277V11.7065V10.9809V9.53419V8.81296H22.8861Z" fill="#590C0C"/>
<path d="M7.62872 8.81348H6.9032V9.5347V10.2602H7.62872V9.5347V8.81348Z" fill="#D7A887"/>
<path d="M7.62872 8.81382V9.53504V10.2606H8.35424H9.07976V9.53504H9.80528V8.81382H10.5351V8.09259H11.2606V7.36707H11.9861H12.7117V6.64584V5.92032V5.1991V4.47358V3.75235H13.4415V3.02682V2.3056V1.58008H12.7117H11.9861V2.3056H11.2606V3.02682H10.5351V3.75235H9.80528V4.47358H9.07976V5.1991H8.35424V5.92032H7.62872V6.64584H6.9032V7.36707V8.09259V8.81382H7.62872Z" fill="#BE8D63"/>
<path d="M6.89886 8.0918H6.17334V8.81303H6.89886V8.0918Z" fill="#D7A887"/>
<path d="M19.9754 5.19824H19.2499V5.91947H19.9754V5.19824Z" fill="#A2623B"/>
<path d="M18.5244 5.1991H17.7989H17.0733V4.47358V3.75235H16.3478V3.02682H15.618V2.3056H14.8925V1.58008H14.167V2.3056V3.02682V3.75235V4.47358H13.4414V5.1991V5.92032V6.64584V7.36707H14.167V8.09259H14.8925V8.81382H15.618V9.53504H16.3478V10.2606H17.0733V10.9818H17.7989H18.5244V10.2606H19.2499V9.53504H19.9797V8.81382H20.7052V8.09259H19.9797V7.36707H19.2499V6.64584V5.92032H18.5244V5.1991Z" fill="#BE8D63"/>
<path d="M19.2499 4.47358H18.5244V3.75235H17.7989V3.02682H17.0734V2.3056H16.3479V1.58008H15.618H14.8925V2.3056H15.618V3.02682H16.3479V3.75235H17.0734V4.47358V5.1991H17.7989H18.5244V5.92032H19.2499V5.1991V4.47358Z" fill="#AE7043"/>
</g>
</svg>
