<svg width="29" height="29" viewBox="0 0 29 29" fill="none" xmlns="http://www.w3.org/2000/svg">
<mask id="mask0_1558_430" style="mask-type:alpha" maskUnits="userSpaceOnUse" x="0" y="0" width="29" height="29">
<rect width="28.3339" height="28.3339" fill="#D9D9D9"/>
</mask>
<g mask="url(#mask0_1558_430)">
<path d="M15.6224 25.1523V24.4268H14.8968V25.1523V25.8735H14.167V26.599H14.8968H15.6224H16.3479V25.8735H17.0734V25.1523H16.3479H15.6224Z" fill="#788593"/>
<path d="M14.8968 25.873V25.1518V24.4262H14.167V23.705V22.9795H13.4415V23.705H12.7159H11.9904V24.4262V25.1518V25.873H12.7159V26.5985H13.4415H14.167V25.873H14.8968Z" fill="#9E9E9E"/>
<path d="M11.9904 24.4269V23.7057H12.716H13.4415V22.9802H14.167H14.8968V22.259H15.6223H16.3478V21.5334H17.0734V20.8122H17.7989V20.091V19.3655V18.6442V17.9187V17.1975V16.472V15.7507V15.0252V14.304V13.5785V12.8572V12.1317H17.0734V11.4105V10.6893H16.3478V9.96375H15.6223V9.24252H14.8968V8.517H14.167V7.79577H13.4415V7.07025V6.34903V5.6235V4.90228H14.167V4.17676V3.45553V2.73001V2.00879H13.4415V2.73001V3.45553V4.17676H12.716V4.90228V5.6235V6.34903V7.07025V7.79577H11.9904H11.2606V8.517H10.5351V9.24252H9.80958V9.96375H9.08406V10.6893H8.35424H7.62872V11.4105V12.1317V12.8572V13.5785V14.304V15.0252V15.7507V16.472V17.1975V17.9187V18.6442V19.3655V20.091V20.8122H8.35424V21.5334H9.08406V22.259H9.80958H10.5351V22.9802H11.2606V23.7057V24.4269V25.1524V25.8737H11.9904V25.1524V24.4269Z" fill="#CECECE"/>
<path d="M11.2606 23.7054V22.9799H10.5351V22.2586H9.80956H9.08404V21.5331H8.35423V20.8119H7.62871V21.5331H6.90319H6.17767V20.8119H6.90319H7.62871V20.0907V19.3651V18.6439V17.9184V17.1972V16.4716V15.7504V15.0249V14.3037V13.5781V12.8569V12.1314V11.4102V10.6889H6.90319V9.96342V9.24219H6.17767V9.96342V10.6889V11.4102V12.1314V12.8569V13.5781V14.3037H5.45215V15.0249V15.7504V16.4716V17.1972V17.9184V18.6439V19.3651V20.0907V20.8119V21.5331V22.2586H6.17767V22.9799H6.90319H6.92895V23.7054H7.62871H8.35423V24.4266H9.08404H9.10122V25.1521H9.80956H10.5351H11.2606V24.4266V23.7054Z" fill="#9E9E9E"/>
<path d="M21.4351 23.705H20.7053H19.9797V24.4262H19.2542V25.1518H19.9797H20.7053V24.4262H21.4351H22.1606V23.705V22.9795H21.4351V23.705Z" fill="#590C0C"/>
<path d="M14.167 23.705V24.4262H14.8968V23.705V22.9795H14.167V23.705Z" fill="#788593"/>
<path d="M22.1606 21.533H22.8861V20.8118V20.0906V19.3651V18.6438V17.9183V17.1971V16.4716V15.7503H22.1606V15.0248V14.3036V13.5781V12.8569V12.1313V11.4101V10.6889V9.96336V9.24212V8.5166H21.4351V7.79538V7.06986H20.7053V6.34863H19.9797H19.2542V7.06986V7.79538H19.9797V8.5166H20.7053V9.24212H19.9797V9.96336H20.7053V10.6889V11.4101V12.1313V12.8569V13.5781V14.3036V15.0248V15.7503V16.4716H21.4351V17.1971V17.9183V18.6438V19.3651V20.0906V20.8118H20.7053H19.9797H19.2542V21.533H19.9797H20.7053V22.2586V22.9798H19.9797H19.2542V23.7053H18.5287V24.4265H17.7989H17.0734V25.1521H17.7989H18.5287H19.2542V24.4265H19.9797V23.7053H20.7053H21.4351V22.9798H22.1606V22.2586V21.533Z" fill="#788593"/>
<path d="M17.7989 24.4272H18.5287V23.706H19.2542V22.9805H19.9798H20.7053V22.2592V21.5337H19.9798H19.2542V20.8125H18.5287H17.7989H17.0734V21.5337H16.3479V22.2592H15.6223H14.8968V22.9805V23.706V24.4272H15.6223V25.1527H16.3479H17.0734V24.4272H17.7989Z" fill="#9E9E9E"/>
<path d="M6.17767 20.8125V21.5337H6.90319H7.62871V20.8125H6.90319H6.17767Z" fill="#CECECE"/>
<path d="M18.5287 20.0908H17.7989V20.812H18.5287H19.2542V20.0908H18.5287Z" fill="#788593"/>
<path d="M18.5287 11.4102H17.7989H17.0734V12.1314H17.7989H18.5287V11.4102Z" fill="#788593"/>
<path d="M19.2542 10.6884V11.4096H18.5287V12.1309H17.7989V12.8564V13.5776V14.3031V15.0244V15.7499V16.4711V17.1966V17.9179V18.6434V19.3646V20.0901H18.5287H19.2542V20.8113H19.9797H20.7053H21.4351V20.0901V19.3646V18.6434V17.9179V17.1966V16.4711H20.7053V15.7499V15.0244V14.3031V13.5776V12.8564V12.1309V11.4096V10.6884V9.96289H19.9797V10.6884H19.2542Z" fill="#9E9E9E"/>
<path d="M19.2542 10.6895H18.5287V11.4107H19.2542V10.6895Z" fill="#788593"/>
<path d="M19.9797 9.96289H19.2542V10.6841H19.9797V9.96289Z" fill="#788593"/>
<path d="M22.8861 9.24207V8.51655V7.79533H22.1606V7.06981V6.34858H21.4351V5.62306H20.7053H19.9797V4.90184V4.17632H19.2542V3.45509H18.5287V2.72957H17.7989V2.00835H17.0734V1.28711H16.3478H15.6223H14.8968H14.167H13.4415H12.716H11.9904H11.2606V2.00835H10.5351V2.72957H9.80958V3.45509H9.08406V4.17632H8.35425V4.90184H7.62873V5.62306H6.90321V6.34858H6.17768V7.06981H5.45216V7.79533V8.51655V9.24207V9.96331H4.72235V10.6888V11.4101V12.1313V12.8568V13.578V14.3035V15.0248V15.7503V16.4715V17.197V17.9183V18.6438V19.365V20.0905V20.8118V21.533V22.2585V22.9797H5.45216V23.7053H6.17768V24.4265H6.90321H7.62873V25.152H8.35425V25.8732H9.08406H9.80958V26.5988H10.5351H11.2606V27.32H11.9904H12.716H13.4415H14.167H14.8968H15.6223H16.3478H17.0734V26.5988H17.7989V25.8732H18.5287H19.2542V25.152H18.5287H17.7989H17.0734V25.8732H16.3478V26.5988H15.6223H14.8968H14.167H13.4415H12.716V25.8732H11.9904H11.2606V25.152H10.5351H9.80958H9.10123H9.08406V24.4265H8.35425V23.7053H7.62873H6.92896H6.90321V22.9797H6.17768V22.2585H5.45216V21.533V20.8118V20.0905V19.365V18.6438V17.9183V17.197V16.4715V15.7503V15.0248V14.3035H6.17768V13.578V12.8568V12.1313V11.4101V10.6888V9.96331V9.24207V8.51655H6.90321V7.79533V7.06981H7.62873V6.34858H8.35425V5.62306H9.08406V4.90184H9.80958V4.17632H10.5351V3.45509H11.2606V2.72957H11.9904V2.00835H12.716H13.4415H14.167H14.8968H15.6223H16.3478V2.72957H17.0734V3.45509H17.7989V4.17632H18.5287V4.90184H19.2542V5.62306V6.34858H19.9797H20.7053V7.06981H21.4351V7.79533V8.51655H22.1606V9.24207V9.96331V10.6888V11.4101V12.1313V12.8568V13.578V14.3035V15.0248V15.7503H22.8861V16.4715V17.197V17.9183V18.6438V19.365V20.0905V20.8118V21.533H22.1606V22.2585V22.9797H22.8861H23.6116V22.2585V21.533V20.8118V20.0905V19.365V18.6438V17.9183V17.197V16.4715V15.7503V15.0248V14.3035V13.578V12.8568V12.1313V11.4101V9.96331V9.24207H22.8861Z" fill="#590C0C"/>
<path d="M7.62872 9.24219H6.9032V9.96342V10.6889H7.62872V9.96342V9.24219Z" fill="#CECECE"/>
<path d="M7.62872 9.24252V9.96375V10.6893H8.35424H9.08405V9.96375H9.80957V9.24252H10.5351V8.517H11.2606V7.79577H11.9904H12.7159V7.07025V6.34903V5.6235V4.90228V4.17676H13.4415V3.45553V2.73001V2.00879H12.7159H11.9904V2.73001H11.2606V3.45553H10.5351V4.17676H9.80957V4.90228H9.08405V5.6235H8.35424V6.34903H7.62872V7.07025H6.9032V7.79577V8.517V9.24252H7.62872Z" fill="#9E9E9E"/>
<path d="M6.90319 8.5166H6.17767V9.23784H6.90319V8.5166Z" fill="#CECECE"/>
<path d="M14.167 3.45553V4.17676V4.90228H13.4415V5.6235V6.34903V7.07025V7.79577H14.167V8.517H14.8968V9.24252H15.6223V9.96375H16.3478V10.6893H17.0734V11.4105H17.7989H18.5287V10.6893H19.2542V9.96375H19.9797V9.24252H20.7053V8.517H19.9797V7.79577H19.2542V7.07025V6.34903H18.5287V5.6235H17.7989H17.0734V4.90228V4.17676H16.3478V3.45553H15.6223V2.73001H14.8968V2.00879H14.167V2.73001V3.45553Z" fill="#9E9E9E"/>
<path d="M15.6223 2.73001V3.45553H16.3479V4.17676H17.0734V4.90228V5.6235H17.7989H18.5287V6.34903H19.2542V5.6235V4.90228H18.5287V4.17676H17.7989V3.45553H17.0734V2.73001H16.3479V2.00879H15.6223H14.8968V2.73001H15.6223Z" fill="#788593"/>
</g>
</svg>
