<svg width="29" height="29" viewBox="0 0 29 29" fill="none" xmlns="http://www.w3.org/2000/svg">
<mask id="mask0_1558_428" style="mask-type:alpha" maskUnits="userSpaceOnUse" x="0" y="0" width="29" height="29">
<rect width="28.3339" height="28.3339" fill="#D9D9D9"/>
</mask>
<g mask="url(#mask0_1558_428)">
<path d="M15.0384 25.7715H14.3215V26.4884H15.0384V25.7715Z" fill="#F22870"/>
<path d="M14.3258 25.7715H13.6089V26.4884H14.3258V25.7715Z" fill="#FF6882"/>
<path d="M15.7554 25.0547H15.0385V25.7716H15.7554V25.0547Z" fill="#FB3971"/>
<path d="M14.3215 25.0545V24.3418V23.6249V22.908V22.1953V21.4784V20.7615V20.0488H13.6089H12.8919H12.175H11.4623V20.7615V21.4784H12.175V22.1953V22.908H12.8919V23.6249V24.3418H13.6089V25.0545V25.7714H14.3215V25.0545Z" fill="#FB3971"/>
<path d="M15.7554 24.3428H15.0385V25.0597H15.7554V24.3428Z" fill="#EF216F"/>
<path d="M15.0384 24.3418H15.7554V23.6249V22.908H16.468V22.1953H17.1849V21.4784V20.7615H17.9019V20.0488H17.1849H16.468H15.7554H15.0384H14.3215V20.7615V21.4784V22.1953V22.908V23.6249V24.3418V25.0545V25.7714H15.0384V25.0545V24.3418Z" fill="#E40A6E"/>
<path d="M13.6089 24.3418H12.892V23.6249V22.908H12.175V22.1953V21.4784H11.4624V20.7615V20.0488H10.7454H10.0285H9.31587H8.59893H7.882H7.16936H6.45242V20.7615H7.16936V21.4784H7.882V22.1953H8.59893H9.31587V22.908H10.0285V23.6249H10.7454V24.3418H11.4624H12.175V25.0545H12.892V25.7714H13.6089V25.0545V24.3418Z" fill="#FF6882"/>
<path d="M12.1793 24.3428H11.4623V25.0597H12.1793V24.3428Z" fill="#70191C"/>
<path d="M16.4723 22.9092H15.7554V23.6261H16.4723V22.9092Z" fill="#EC196F"/>
<path d="M22.1949 20.7627H21.478V21.4796H22.1949V20.7627Z" fill="#8E1A2C"/>
<path d="M22.1949 20.0488H21.478H20.761H20.0484H19.3315H18.6145H17.9019V20.7615H17.1849V21.4784V22.1953H16.468V22.908V23.6249H15.7554V24.3418V25.0545H16.468H17.1849V24.3418H17.9019V23.6249H18.6145V22.908H19.3315H20.0484V22.1953H20.761V21.4784H21.478V20.7615H22.1949H22.9075V20.0488H22.1949Z" fill="#FB3971"/>
<path d="M6.45241 20.0488H5.73547V20.7658H6.45241V20.0488Z" fill="#DF566B"/>
<path d="M7.16934 20.049H7.88198H8.59892H9.31585H10.0285H10.7454H11.4624V19.3321V18.6151V17.9025V17.1855V16.4686V15.756V15.039V14.3221V13.6095V12.8925V12.1756V11.4629V10.746V10.0291V9.31643V8.5995V7.88256V7.16992H10.7454H10.0285H9.31585H8.59892H7.88198H7.16934H6.45241H5.73547V7.88256V8.5995V9.31643V10.0291V10.746V11.4629V12.1756V12.8925V13.6095V14.3221V15.039V15.756V16.4686V17.1855V17.9025V18.6151V19.3321V20.049H6.45241H7.16934Z" fill="#FB3971"/>
<path d="M14.3215 18.6151V17.9025V17.1855V16.4686V15.756V15.039V14.3221V13.6095V12.8925V12.1756V11.4629V10.746V10.0291V9.31643V8.5995V7.88256V7.16992H13.6089H12.8919H12.175H11.4623V7.88256V8.5995V9.31643V10.0291V10.746V11.4629V12.1756V12.8925V13.6095V14.3221V15.039V15.756V16.4686V17.1855V17.9025V18.6151V19.3321V20.049H12.175H12.8919H13.6089H14.3215V19.3321V18.6151Z" fill="#FF6882"/>
<path d="M20.761 7.16992H20.0484H19.3315H18.6145H17.9019V7.88256V8.5995V9.31643V10.0291V10.746V11.4629V12.1756V12.8925V13.6095V14.3221V15.039V15.756V16.4686V17.1855V17.9025V18.6151V19.3321V20.049H18.6145H19.3315H20.0484H20.761H21.478H22.1949H22.9075V19.3321V18.6151V17.9025V17.1855V16.4686V15.756V15.039V14.3221V13.6095V12.8925V12.1756V11.4629V10.746V10.0291V9.31643V8.5995V7.88256V7.16992H22.1949H21.478H20.761Z" fill="#E40A6E"/>
<path d="M23.6245 6.45339V5.73644H22.1949V5.01952H21.478V4.30258H20.7611V3.58564H19.3315V2.86871H18.6145V2.15177H17.8976V1.43484H16.468V0.717904H15.7511V0.000976562H12.8877V0.717904H12.1707V1.43484H10.7411V2.15177H10.0242V2.86871H9.30728V3.58564H8.59034V4.30258H7.16077V5.01952H6.44383V5.73644H5.7269V6.45339H5.00996V7.17031H4.29303V20.7663H5.00996V21.4832H6.43954V22.2002H7.15647V22.9171H7.87341V23.634H9.30298V24.351H10.0199V25.0679H10.7369V25.7849H11.4538V26.5018H12.8834V27.2187H13.6003V27.9357H15.0299V27.2187H15.7468V26.5018H17.1764V25.7849H17.8933V25.0679H18.6103V24.351H20.0398V23.634H20.7568V22.9171H21.4737V22.2002H22.9033V21.4832H23.6202V20.7663H24.3371V6.45767H23.6202L23.6245 6.45339ZM22.1949 20.762V21.479H20.7653V22.1959H20.0484V22.9128H18.6188V23.6297H17.9019V24.3467H17.185V25.0636H15.7554V25.7806H15.0385V26.4975H13.6089V25.7806H12.8919V25.0636H11.4624V24.3467H10.7454V23.6297H10.0285V22.9128H9.31157V22.1959H7.88199V21.479H7.16506V20.762H5.73548V7.16603H6.45242V6.44909H7.16935V5.73215H8.59893V5.01522H9.31586V4.29828H10.0328V3.58135H11.4624V2.86441H12.1793V2.14749H12.8962V1.43055H13.6132V0.713606H15.0428V1.43055H15.7597V2.14749H16.4766V2.86441H17.9062V3.58135H18.6231V4.29828H19.3401V5.01522H20.7696V5.73215H21.4866V6.44909H22.2035V7.16603H22.9204V20.762H22.2035H22.1949Z" fill="#590C0C"/>
<path d="M7.882 7.17025H8.59893H9.31587H10.0285H10.7454H11.4624V6.45332V5.73638H12.175V5.02374V4.30681H12.892V3.58987V2.87723H13.6089V2.1603V1.44336H12.892V2.1603H12.175V2.87723H11.4624V3.58987H10.7454H10.0285V4.30681H9.31587V5.02374H8.59893V5.73638H7.882H7.16936V6.45332H6.45242V7.17025H7.16936H7.882Z" fill="#FF6882"/>
<path d="M15.0384 2.87723H15.7554V3.58987V4.30681H16.468V5.02374V5.73638H17.1849V6.45332V7.17025H16.468H15.7554H15.0384H14.3215V7.88289V8.59983V9.31675V10.0294V10.7463V11.4633V12.1759V12.8928V13.6098V14.3224V15.0394V15.7563V16.4689V17.1859V17.9028V18.6154V19.3324V20.0493H15.0384H15.7554H16.468H17.1849H17.9019V19.3324V18.6154V17.9028V17.1859V16.4689V15.7563V15.0394V14.3224V13.6098V12.8928V12.1759V11.4633V10.7463V10.0294V9.31675V8.59983V7.88289V7.17025H18.6145H19.3315H20.0484H20.761H21.478H22.1949V6.45332H21.478V5.73638H20.761V5.02374H20.0484H19.3315V4.30681H18.6145V3.58987H17.9019V2.87723H17.1849H16.468V2.1603H15.7554V1.44336H15.0384V2.1603V2.87723Z" fill="#FB3971"/>
<path d="M13.6089 2.87723H12.8919V3.58987V4.30681H12.175V5.02374V5.73638H11.4623V6.45332V7.17025H12.175H12.8919H13.6089H14.3215V6.45332V5.73638V5.02374V4.30681V3.58987V2.87723V2.1603V1.44336H13.6089V2.1603V2.87723Z" fill="#FB3971"/>
<path d="M14.3215 2.1603V2.87723V3.58987V4.30681V5.02374V5.73638V6.45332V7.17025H15.0384H15.7554H16.468H17.1849V6.45332V5.73638H16.468V5.02374V4.30681H15.7554V3.58987V2.87723H15.0384V2.1603V1.44336H14.3215V2.1603Z" fill="#E40A6E"/>
<path d="M15.0384 0.731445H14.3215V1.44839H15.0384V0.731445Z" fill="#FB3971"/>
<path d="M14.3258 0.731445H13.6089V1.44839H14.3258V0.731445Z" fill="#FF6882"/>
<path d="M18.4772 6.2041L19.2499 7.70237L20.7482 8.47511L19.2499 9.24785L18.4772 10.7461L17.7044 9.24785L16.2061 8.47511L17.7044 7.70237L18.4772 6.2041Z" fill="white"/>
</g>
</svg>
